<?xml version="1.0" encoding="UTF-8" standalone="no"?>
<!-- Created with Inkscape (http://www.inkscape.org/) -->

<svg
   version="1.1"
   id="svg1"
   width="1024"
   height="1536"
   viewBox="0 0 1024 1536"
   sodipodi:docname="logo.svg"
   inkscape:version="1.4.3 (0d15f75, 2025-12-25)"
   inkscape:export-filename="tsujido_logo_edit.png"
   inkscape:export-xdpi="187.5"
   inkscape:export-ydpi="187.5"
   xmlns:inkscape="http://www.inkscape.org/namespaces/inkscape"
   xmlns:sodipodi="http://sodipodi.sourceforge.net/DTD/sodipodi-0.dtd"
   xmlns:xlink="http://www.w3.org/1999/xlink"
   xmlns="http://www.w3.org/2000/svg"
   xmlns:svg="http://www.w3.org/2000/svg">
  <defs
     id="defs1">
    <linearGradient
       id="linearGradient113"
       inkscape:collect="always">
      <stop
         style="stop-color:#1f2a44;stop-opacity:1;"
         offset="0"
         id="stop113" />
      <stop
         style="stop-color:#1f2a44;stop-opacity:0;"
         offset="1"
         id="stop114" />
    </linearGradient>
    <rect
       x="74.181818"
       y="63.272727"
       width="826.90909"
       height="1073.4545"
       id="rect76" />
    <rect
       x="222.54545"
       y="979.63636"
       width="619.63636"
       height="43.636364"
       id="rect74" />
    <linearGradient
       inkscape:collect="always"
       xlink:href="#linearGradient113"
       id="linearGradient114" />
    <linearGradient
       inkscape:collect="always"
       xlink:href="#linearGradient113"
       id="linearGradient115"
       x1="247.97237"
       y1="998.10442"
       x2="776.62171"
       y2="998.10442"
       gradientUnits="userSpaceOnUse" />
    <linearGradient
       inkscape:collect="always"
       xlink:href="#linearGradient113"
       id="linearGradient116" />
    <linearGradient
       inkscape:collect="always"
       xlink:href="#linearGradient113"
       id="linearGradient117" />
    <linearGradient
       inkscape:collect="always"
       xlink:href="#linearGradient113"
       id="linearGradient118" />
    <linearGradient
       inkscape:collect="always"
       xlink:href="#linearGradient113"
       id="linearGradient119"
       x1="267.87329"
       y1="923.90227"
       x2="936.78179"
       y2="923.90227"
       gradientUnits="userSpaceOnUse" />
    <linearGradient
       inkscape:collect="always"
       xlink:href="#linearGradient113"
       id="linearGradient120" />
    <linearGradient
       inkscape:collect="always"
       xlink:href="#linearGradient113"
       id="linearGradient121" />
    <linearGradient
       inkscape:collect="always"
       xlink:href="#linearGradient113"
       id="linearGradient122"
       x1="301.88481"
       y1="561.06212"
       x2="722.1344"
       y2="561.06212"
       gradientUnits="userSpaceOnUse" />
  </defs>
  <sodipodi:namedview
     id="namedview1"
     pagecolor="#ffffff"
     bordercolor="#000000"
     borderopacity="0.25"
     inkscape:showpageshadow="2"
     inkscape:pageopacity="0.0"
     inkscape:pagecheckerboard="0"
     inkscape:deskcolor="#d1d1d1"
     inkscape:lockguides="true"
     inkscape:zoom="0.45833333"
     inkscape:cx="511.63637"
     inkscape:cy="613.09091"
     inkscape:window-width="1470"
     inkscape:window-height="831"
     inkscape:window-x="0"
     inkscape:window-y="33"
     inkscape:window-maximized="0"
     inkscape:current-layer="g1" />
  <g
     inkscape:groupmode="layer"
     inkscape:label="Image"
     id="g1">
    <path
       style="fill:#163455;stroke:url(#linearGradient122);stroke-opacity:1;stroke-width:3;stroke-dasharray:none;opacity:1;fill-opacity:1"
       d="M 457.96708,863.68633 C 449.46097,861.2969 441.16272,853.22547 433.16291,839.56016 420.16125,817.35066 413.67356,796.6996 394.50258,716.5 379.79785,654.98445 365.45711,605.6356 346.32729,550.72097 334.31045,516.22506 329.6333,500.69052 328.47653,491.432 328.10325,488.4444 327.32558,486 326.74838,486 c -0.57721,0 -4.46286,1.85079 -8.63478,4.11287 -8.83457,4.79023 -7.56243,2.83859 1.91469,-2.9374 4.95086,-3.01739 6.44498,-4.45378 6.26916,-6.02693 -0.87731,-7.84939 -3.20796,-24.42067 -3.47171,-24.68442 -0.17654,-0.17654 -4.56872,1.43127 -9.76041,3.57292 -5.19169,2.14164 -9.5499,3.78343 -9.68491,3.64842 -0.34513,-0.34512 7.06876,-4.12239 13.92835,-7.0963 l 5.78049,-2.50606 -0.64693,-11.79155 c -1.70121,-31.00811 4.67593,-52.80896 20.28892,-69.35955 l 6.51406,-6.90525 -1.64914,-13.26337 C 346.22965,341.77301 346.1187,336.84369 346.9488,324 c 1.14379,-17.69748 2.53082,-25.18872 7.40616,-40 5.32537,-16.17845 10.14324,-26.4403 12.59097,-26.81815 2.81128,-0.43397 19.81329,4.0773 29.58236,7.84932 25.60277,9.8857 58.16514,34.26621 70.10649,52.49101 1.43886,2.19599 2.32857,2.47782 7.8221,2.47782 8.51957,0 26.8445,2.51443 35.20046,4.82999 7.48681,2.0747 19.74614,7.88506 25.36584,12.02224 19.96189,14.69578 28.12489,29.83548 30.50366,56.57427 1.14749,12.89851 3.36428,16.38288 23.70509,37.25993 l 14.79636,15.18644 -0.007,6.81356 C 604.00963,464.0163 597.84304,486.0311 592.30882,494.5 581.3242,511.30956 568.53804,518 547.39776,518 h -10.17382 l -1.00079,-2.87086 -1.00079,-2.87086 7.34385,-0.66549 c 13.43745,-1.21767 25.4832,-6.15666 33.27441,-13.64315 5.49741,-5.28241 10.76532,-15.08698 12.26284,-22.82345 1.13967,-5.88773 1.09278,-6.45269 -0.61479,-7.4083 -6.00326,-3.35959 -16.59516,-15.98311 -14.86364,-17.71463 0.50662,-0.50662 3.84211,-1.66342 7.41219,-2.57067 3.57009,-0.90724 6.64359,-1.79074 6.83,-1.96332 0.18641,-0.17259 -1.38859,-1.87791 -3.5,-3.78961 -11.77208,-10.6586 -19.17819,-19.4357 -23.30928,-27.62423 -1.54148,-3.05549 -4.64427,-11.97622 -6.89509,-19.82386 -2.25082,-7.84764 -5.68414,-17.52264 -7.6296,-21.5 -7.98714,-16.32915 -22.23417,-28.30218 -40.70152,-34.20507 -9.02409,-2.88445 -27.55069,-4.98528 -36.80344,-4.17333 l -6.5,0.57039 -3.5,-5.21178 c -5.56446,-8.28593 -23.59055,-25.71452 -34.67437,-33.52504 -12.74934,-8.98418 -29.8229,-17.62847 -39.91801,-20.21037 -4.25602,-1.0885 -7.86637,-1.85095 -8.02301,-1.69432 -0.96042,0.96043 -7.6141,19.90495 -8.79478,25.04072 -4.85422,21.11511 -3.66642,49.25346 2.8516,67.55296 0.85721,2.40665 1.55688,4.88165 1.55482,5.5 -0.002,0.61835 -2.08611,1.98077 -4.63122,3.0276 -6.03159,2.48085 -14.85713,11.30361 -20.10304,20.09667 -3.1557,5.28951 -4.4689,8.83266 -5.37416,14.5 -1.26327,7.9086 -1.83573,36.36236 -0.75364,37.459 0.3488,0.35349 4.6238,-0.0302 9.5,-0.85274 23.54203,-3.97098 46.0409,-4.42839 60.86581,-1.23743 5.58575,1.20229 4.03234,1.33297 -22.5,1.89283 -22.3293,0.47117 -30.50418,1.01456 -37.75652,2.50971 -5.09109,1.04959 -9.56048,2.2123 -9.932,2.58381 -0.68652,0.68653 1.28031,20.17531 2.18363,21.63691 0.2714,0.43912 3.87119,-0.51318 7.99955,-2.11623 16.87335,-6.55194 37.21812,-9.9648 57.97911,-9.72607 l 13.02623,0.14978 -14,0.76992 c -16.72346,0.9197 -32.63606,4.31202 -55.5,11.83174 -9.84603,3.23826 -9.41351,2.54285 -7.5948,12.21113 2.25237,11.97366 7.50228,30.09686 13.58236,46.88764 5.98153,16.51865 9.97269,28.64905 16.94459,51.5 7.97606,26.14218 10.94693,36.92272 27.00657,98 1.59079,6.05 5.23627,20.675 8.10107,32.5 14.50857,59.88686 24.69841,91.50942 34.96229,108.5 5.30027,8.77394 8.09038,11.83354 12.21683,13.39682 2.32698,0.88156 2.94319,0.71097 4.27479,-1.18339 3.67994,-5.23515 3.98259,-9.23673 3.68439,-48.71343 -0.38778,-51.33614 1.09035,-70.98647 7.48452,-99.5 4.60315,-20.5268 10.55294,-34.88086 19.29908,-46.55962 8.67319,-11.58136 18.84339,-16.7147 30.88706,-15.59004 27.22934,2.54271 45.73236,36.25622 55.23966,100.64966 1.56632,10.60879 2.187,22.3878 2.89816,55 0.94296,43.24244 1.64076,50.29265 5.41167,54.6766 3.02172,3.51295 7.04352,2.52991 13.53783,-3.30903 16.01028,-14.39462 28.25907,-46.43865 48.11273,-125.86757 6.23643,-24.95021 8.27943,-32.54751 13.04223,-48.5 30.34045,-101.62209 42.94858,-166.53463 44.57638,-229.5 1.06115,-41.04645 -2.95596,-60.44632 -16.25825,-78.5162 -9.00009,-12.22575 -25.56757,-21.16165 -47.72934,-25.74347 -6.29312,-1.30106 -13.48483,-1.69212 -31.17982,-1.69545 -25.10724,-0.005 -37.23563,1.56112 -54.61417,7.051 l -8.22966,2.59975 -1.80585,-2.34782 c -0.99322,-1.29129 -1.81585,-2.57301 -1.82808,-2.84826 -0.0785,-1.76709 35.03025,-12.79601 48.3844,-15.19927 24.63378,-4.43318 52.55414,-2.59249 72.19344,4.75946 30.53599,11.43112 46.07993,30.0784 53.71591,64.44026 3.71722,16.7275 2.76386,72.19466 -1.85137,107.71366 -6.3216,48.65125 -19.40965,106.33319 -38.01314,167.53229 -7.14582,23.50728 -11.23139,38.00889 -18.52506,65.75405 -18.46252,70.23153 -27.37328,95.5914 -40.79561,116.10351 -11.58364,17.70221 -22.46876,25.86672 -34.51278,25.88672 -7.10916,0.0118 -11.25479,-2.2143 -14.32242,-7.69082 -4.05042,-7.23107 -4.5666,-14.25414 -4.76261,-64.79941 -0.19538,-50.37998 -0.74247,-58.60538 -5.52198,-83.02106 -5.22255,-26.67893 -14.71354,-50.57836 -24.3713,-61.36984 -4.25271,-4.75194 -10.73782,-8.11138 -15.5855,-8.07366 -5.15325,0.0401 -7.32267,1.04394 -12.53359,5.79964 -12.3724,11.29155 -20.34146,34.90052 -25.70896,76.16492 -1.30861,10.06031 -1.68727,54.84679 -0.81167,96 0.43603,20.49321 0.26401,24.50666 -1.34439,31.36769 -3.12387,13.32557 -9.7349,17.68445 -21.71682,14.31864 z"
       id="path68" />
    <text
       xml:space="preserve"
       style="font-size:96px;writing-mode:lr-tb;direction:ltr;fill:#163455;stroke:url(#linearGradient121);stroke-opacity:1;stroke-width:3;stroke-dasharray:none;opacity:1;fill-opacity:1"
       x="176.72726"
       y="901.09088"
       id="text69"><tspan
         sodipodi:role="line"
         id="tspan69"
         x="176.72726"
         y="901.09088"
         style="fill:#163455;stroke:url(#linearGradient121);stroke-opacity:1;fill-opacity:1" /></text>
    <text
       xml:space="preserve"
       style="font-size:74.66666667px;writing-mode:lr-tb;direction:ltr;fill:#163455;stroke:url(#linearGradient120);stroke-opacity:1;stroke-width:3;stroke-dasharray:none;opacity:1;fill-opacity:1"
       x="178.90909"
       y="973.09088"
       id="text70"><tspan
         sodipodi:role="line"
         id="tspan70"
         x="178.90909"
         y="973.09088"
         style="fill:#163455;stroke:url(#linearGradient120);stroke-opacity:1;fill-opacity:1" /></text>
    <path
       style="font-size:74.6667px;font-family:'Hiragino Kaku Gothic ProN';-inkscape-font-specification:'Hiragino Kaku Gothic ProN, Normal';white-space:pre;inline-size:681.3;stroke:url(#linearGradient119);stroke-opacity:1;fill:#163455;stroke-width:3;stroke-dasharray:none;opacity:1;fill-opacity:1"
       d="m 310.38433,918.58518 v 22.54934 c 0,2.76267 -0.14934,4.70401 -0.448,6.94401 h 5.74933 c -0.29866,-2.16534 -0.448,-4.10667 -0.448,-7.01867 v -22.47468 h 14.41068 c 3.06133,0 4.928,0.0747 6.86933,0.37333 v -5.152 c -2.09066,0.29867 -3.584,0.37333 -6.86933,0.37333 h -14.41068 v -15.30667 c 0,-2.83734 0.0747,-4.48 0.448,-6.72 h -5.74933 c 0.37333,2.31466 0.448,3.88266 0.448,6.72 v 15.30667 h -12.84267 c -3.28534,0 -4.92801,-0.0747 -6.94401,-0.37333 v 5.152 c 2.016,-0.224 4.032,-0.37333 6.94401,-0.37333 z M 274.32031,896.1105 c 5.152,3.28534 7.392,5.07734 11.49867,9.18401 l 3.06134,-3.73334 c -4.256,-3.808 -6.86934,-5.824 -11.72267,-8.88534 z m -2.16533,15.75468 c 5.22667,3.06133 7.76533,5.00266 12.32,9.184 l 2.83734,-3.88267 c -4.48,-3.73333 -7.46667,-5.89867 -12.39468,-8.88534 z m 14.336,22.84801 c 0,-3.73334 0.0747,-5.60001 0.37334,-7.84001 -1.86667,0.29867 -3.43467,0.37334 -5.67467,0.37334 h -4.33067 c -2.83734,0 -4.032,-0.0747 -5.824,-0.37334 v 5.00267 c 1.792,-0.29866 3.136,-0.37333 5.52533,-0.37333 h 5.30134 v 12.02134 c -4.18134,3.95733 -8.73601,7.31733 -11.94667,8.66133 l 2.464,5.07734 c 0.52266,-0.448 0.52266,-0.448 0.896,-0.74667 0.97066,-0.82133 1.26933,-1.12 1.344,-1.19466 5.52533,-4.18134 6.42133,-5.00267 9.408,-7.98934 2.76267,4.10667 5.37601,6.272 9.40801,7.76534 3.88267,1.41866 8.736,1.86666 19.48801,1.86666 6.42133,0 17.248,-0.224 24.26667,-0.52266 0.37334,-2.24 0.672,-3.06134 1.71734,-5.52534 -7.168,0.896 -16.05334,1.344 -25.76001,1.344 -12.61868,0 -17.39735,-0.59733 -20.83201,-2.53867 -2.688,-1.49333 -4.18134,-3.136 -5.82401,-6.19733 z m 88.70405,-30.46402 h -7.46667 c -2.46401,-4.10667 -4.18134,-6.42133 -8.51201,-11.648 l -4.032,2.16533 c 3.73333,3.95734 5.152,5.67467 7.46667,9.48267 h -7.616 c -3.73334,0 -6.04801,-0.0747 -7.84001,-0.29866 0.224,1.86666 0.29867,3.584 0.29867,5.97333 v 5.97334 c 0,1.26933 -0.0747,2.912 -0.29867,4.55467 h 4.77867 v -12.17068 h 52.86403 v 12.32001 h 4.77867 c -0.224,-1.344 -0.29867,-2.83733 -0.29867,-4.256 v -5.6 c 0,-2.91201 0.0747,-4.70401 0.29867,-6.79467 -1.79201,0.224 -4.55467,0.29866 -8.28801,0.29866 h -7.168 c 2.61333,-3.21067 3.36,-4.33067 6.79467,-9.70667 l -4.62934,-2.38933 c -1.94133,4.40533 -3.808,7.54133 -7.31733,12.096 h -9.10934 v -7.392 c 0,-2.016 0.14933,-3.808 0.37333,-5.52534 h -5.45067 c 0.224,1.86667 0.37334,3.65867 0.37334,5.52534 z m 0,27.32802 v 7.01867 h -16.87468 c -3.136,0 -4.85333,-0.0747 -6.79467,-0.37334 v 5.00267 c 1.94134,-0.29867 3.65867,-0.37333 6.79467,-0.37333 h 16.87468 v 9.55733 h -21.72801 c -3.36001,0 -6.19734,-0.14933 -7.98934,-0.448 v 5.22667 c 2.53867,-0.37333 5.07733,-0.52266 7.98934,-0.52266 h 49.80269 c 2.912,0 5.22667,0.14933 7.76533,0.52266 v -5.22667 c -2.016,0.29867 -4.48,0.448 -7.76533,0.448 h -23.44535 v -9.55733 h 18.59201 c 3.136,0 4.704,0.0747 6.72,0.37333 v -5.00267 c -1.94133,0.29867 -3.584,0.37334 -6.72,0.37334 h -18.59201 v -7.01867 h 10.82667 c 2.83734,0 5.07734,0.0747 7.31734,0.29866 -0.14933,-1.12 -0.224,-2.31467 -0.224,-6.272 v -5.30134 c 0,-3.06133 0.0747,-4.40533 0.224,-5.97333 -1.41867,0.224 -3.21067,0.29866 -6.19734,0.29866 h -26.88001 c -2.464,0 -4.62933,-0.0747 -6.34667,-0.29866 0.14933,1.49333 0.224,3.28533 0.224,5.824 v 5.45067 c 0,3.65867 -0.0747,4.704 -0.224,6.272 1.64267,-0.224 3.43467,-0.29866 6.72,-0.29866 z m -11.87201,-12.99201 h 29.86668 v 9.10934 H 363.32302 Z M 469.8724,894.84117 c 2.24001,2.38933 5.82401,7.91467 7.69067,11.872 l 3.73334,-2.24 c -2.24,-4.40533 -4.33067,-7.54133 -7.69067,-11.57334 z m -48.08535,22.99734 c 3.36,-0.97067 5.45067,-1.344 15.00801,-2.688 -3.36001,14.11201 -9.78134,29.04535 -15.97868,37.18402 l 5.07734,2.98667 c 7.76533,-13.66401 12.992,-26.65602 16.128,-40.61869 2.76267,-0.29867 3.73334,-0.37333 5.37601,-0.37333 6.944,0 9.184,2.53866 9.184,10.45334 0,8.36267 -1.12,15.97867 -3.136,20.75734 -0.97067,2.38933 -2.38933,3.584 -4.256,3.584 -2.688,0 -6.86934,-1.26933 -11.12534,-3.43467 0.224,1.344 0.224,1.792 0.224,2.912 0,1.04534 0,1.568 -0.14933,2.688 4.928,2.09067 8.064,2.91201 11.27467,2.91201 3.50933,0 5.52533,-0.97067 7.31733,-3.50934 3.06134,-4.33067 5.00267,-14.26134 5.00267,-25.68534 0,-6.12267 -1.04533,-9.55734 -3.65866,-12.02134 -2.31467,-2.24 -5.45067,-3.13601 -10.75201,-3.13601 -1.71733,0 -2.688,0.0747 -4.40534,0.224 0.59734,-3.21066 1.26934,-6.64533 1.56801,-8.512 0.59733,-4.032 0.97066,-5.74934 1.41866,-7.168 l -5.97333,-0.672 c 0,0.448 0,0.82133 0,0.97066 0,3.13601 -0.97067,10.22934 -2.24,15.82935 -10.97601,1.568 -13.81334,1.86666 -16.50135,1.94133 z m 56.59736,-26.95468 c 2.912,3.36 6.048,8.21334 7.616,11.72267 l 3.73334,-2.16533 c -2.464,-4.704 -4.33067,-7.46667 -7.69067,-11.57334 z m -12.54401,17.02401 c 6.72001,6.64534 12.76801,17.32268 15.23201,26.80535 l 4.77867,-2.688 c -3.136,-9.85601 -8.21334,-18.51735 -15.60534,-26.43202 z m 41.66402,-12.17067 c 0.224,1.568 0.29867,2.38933 0.29867,3.95733 0,1.26934 0,2.61334 -0.0747,4.85334 -0.59733,23.52001 -0.672,25.38668 -0.672,30.38935 0,7.84 1.04534,11.79734 4.10667,15.30667 2.98667,3.43467 7.69067,5.22667 14.03734,5.22667 8.736,0 15.75467,-3.06134 21.05601,-9.25867 3.28534,-3.88267 5.45067,-8.28801 8.288,-16.94934 -2.24,-1.19467 -3.36,-1.94134 -5.376,-3.65867 -1.04533,5.30133 -1.94133,8.21334 -3.65867,11.72267 -4.256,8.51201 -11.12533,12.99201 -20.01067,12.99201 -3.88267,0 -7.24267,-1.04534 -9.33334,-2.912 -2.24,-2.01601 -3.21067,-4.48001 -3.50934,-8.96001 -0.0747,-1.64267 -0.14933,-3.584 -0.14933,-4.48 0,-3.36 0.224,-13.51467 0.52267,-22.47468 0.224,-9.408 0.52267,-13.216 0.97067,-15.68001 z m 23.59468,3.584 c 2.16533,2.31467 5.74934,7.91467 7.616,11.87201 l 3.80801,-2.24001 c -2.31467,-4.40533 -4.33067,-7.54133 -7.69067,-11.57333 z m 8.288,-4.256 c 2.91201,3.43467 6.04801,8.21333 7.61601,11.72267 l 3.808,-2.16533 c -2.53867,-4.70401 -4.40534,-7.46667 -7.76534,-11.57334 z m 43.53069,39.49868 c 0.0747,-1.04533 0.0747,-1.04533 0.29867,-2.912 0.29867,-2.688 0.59733,-4.62933 0.672,-5.67467 1.04533,-8.58667 1.64267,-12.02134 2.61333,-14.18667 l -5.00267,-0.52267 c 0,1.04534 -0.14933,2.24 -0.37333,3.584 -1.26933,7.84001 -1.792,13.06668 -1.792,19.26401 0,2.24 0.0747,5.00267 0.29867,8.06401 0.14933,2.83733 0.14933,2.83733 0.14933,3.88267 l 4.77867,-0.224 c -0.224,-1.49334 -0.29867,-2.31467 -0.29867,-3.36001 0,-3.584 1.41867,-7.76533 3.88267,-11.648 4.032,-6.272 9.63201,-10.15467 16.57601,-11.42401 0.0747,2.83734 0.14933,4.704 0.14933,6.72001 0,8.21333 -0.672,12.91734 -2.464,16.87467 -4.55467,-1.71733 -7.69067,-4.928 -9.70667,-10.00534 -0.97067,1.71734 -1.41867,2.31467 -2.53867,3.50934 1.86667,4.032 4.55467,7.01867 8.06401,8.96 1.04533,0.59734 1.792,0.896 2.464,1.12 -0.14934,0.14934 -0.224,0.14934 -0.37334,0.37334 -3.136,3.808 -5.97333,5.97333 -10.15467,7.76533 1.64267,1.12 2.16534,1.568 3.65867,3.43467 5.22667,-3.136 8.736,-6.42134 11.27467,-10.37867 1.19467,0.14933 1.86667,0.224 2.912,0.224 10.60268,0 18.51735,-7.24267 18.51735,-16.94934 0,-9.33334 -6.94401,-15.75468 -17.54668,-16.05334 -0.0747,-1.94134 -0.0747,-2.464 -0.14933,-4.256 -0.14934,-1.49334 -0.14934,-2.31467 -0.14934,-2.76267 0,-0.448 0,-0.82134 0,-1.568 l -4.928,0.0747 c 0.448,2.24 0.52267,3.28534 0.82134,8.81067 -8.73601,1.344 -15.15735,5.97334 -19.63735,14.33601 -0.74666,1.344 -0.97066,1.94134 -1.792,4.928 z m 23.74401,9.40801 c 1.792,-3.73334 2.61334,-9.63201 2.61334,-18.36801 0,-2.09067 0,-3.808 -0.14934,-6.496 2.53867,0.14933 4.18134,0.448 6.04801,1.26933 4.18133,1.71733 6.72,5.74934 6.72,10.528 0,7.46667 -5.97334,12.91734 -14.18667,12.99201 -0.74667,0 -0.74667,0 -1.04534,0.0747 z m 98.1867,3.50933 c -0.97067,-0.59733 -1.344,-0.82133 -2.53867,-1.71733 -7.84,-5.67467 -14.336,-9.10934 -20.83201,-10.90134 -0.29866,-7.24267 -0.29866,-7.24267 -0.448,-11.42401 5.52534,-0.37333 11.42401,-0.97066 16.57601,-1.792 2.61334,-0.37333 3.36,-0.448 4.33067,-0.52266 l -0.29867,-5.15201 c -4.10667,1.41867 -10.528,2.31467 -20.68267,3.06134 -0.0747,-3.95734 -0.0747,-3.95734 -0.14934,-10.08001 8.28801,-0.52266 10.30401,-0.74666 17.32268,-1.792 3.88267,-0.52266 3.88267,-0.52266 5.152,-0.59733 l -0.37333,-5.07734 c -4.10667,1.344 -11.79734,2.38934 -22.10135,3.06134 0.0747,-5.376 0.224,-8.96001 0.52267,-10.52801 h -5.74934 c 0.29867,1.64267 0.29867,1.64267 0.37334,10.75201 -2.464,0 -5.00267,0.0747 -6.49601,0.0747 -8.13867,0 -15.904,-0.59734 -19.11467,-1.49334 l -0.0747,5.07734 c 0.448,-0.0747 0.82134,-0.0747 1.04534,-0.0747 0.37333,0 0.82133,0 1.344,0.0747 6.72,0.52266 12.768,0.74666 18.21867,0.74666 1.71734,0 2.912,0 5.07734,-0.0747 l 0.14933,10.22934 c -2.09067,0.0747 -4.704,0.0747 -6.64534,0.0747 -7.54133,0 -13.73867,-0.448 -17.09867,-1.19466 l -0.0747,4.928 c 0.224,0 0.52267,0 0.59734,0 0.448,0 1.04533,0 1.86666,0.0747 4.62934,0.37334 8.13867,0.52267 12.61868,0.52267 2.38933,0 6.12267,-0.0747 8.81067,-0.14933 0.0747,1.94133 0.0747,3.36 0.14933,4.33067 0.0747,2.16533 0.0747,3.73333 0.14933,4.40533 0,0.448 0.0747,0.74667 0.0747,0.82134 0,0.672 0,0.672 0.0747,0.896 -3.21067,-0.52267 -4.256,-0.59734 -6.72001,-0.59734 -3.28533,0 -5.52533,0.224 -7.76533,0.74667 -6.57067,1.49333 -10.45334,5.376 -10.45334,10.304 0,3.06134 1.49333,5.97334 4.032,7.84001 2.53867,1.94133 6.64534,2.98667 11.57334,2.98667 5.89867,0 10.45334,-1.64267 12.61867,-4.70401 1.344,-1.792 1.86667,-4.18133 1.86667,-8.13867 0,-0.97066 0,-0.97066 -0.14933,-2.688 2.016,0.82134 3.73333,1.568 5.00267,2.24 6.34667,3.28534 11.79733,7.09334 15.232,10.67734 z m -28.14935,-6.048 c 0,3.584 -0.448,5.67467 -1.49333,6.72 -1.41867,1.64267 -4.256,2.464 -8.21334,2.464 -6.496,0 -10.22934,-2.24 -10.22934,-6.19733 0,-3.95734 4.85334,-6.64534 12.24534,-6.64534 3.28534,0 4.77867,0.14933 7.61601,0.82134 z m 55.47738,-38.00535 c 1.64267,-0.224 2.38933,-0.29867 4.032,-0.37334 11.34934,-0.37333 20.30934,-0.896 22.69868,-1.344 0.448,-0.0747 0.448,-0.0747 0.672,-0.0747 l 0.14933,0.14933 -0.29866,0.29867 c -0.14934,0.14933 -0.29867,0.29866 -0.29867,0.29866 -0.59733,0.59734 -0.59733,0.59734 -1.04533,1.04534 -5.15201,5.07733 -16.94935,15.45601 -24.93868,21.80268 -5.07734,4.10666 -7.76534,6.048 -10.45334,7.616 l 3.36,4.77867 c 8.66134,-7.98934 20.45868,-12.76801 31.43468,-12.76801 10.08001,0 16.05334,4.256 16.05334,11.42401 0,6.34667 -4.10667,10.90134 -11.94667,13.06667 -1.04533,-3.28533 -1.86667,-5.07734 -3.43467,-7.168 -2.98667,-3.95734 -7.31733,-6.12267 -12.32,-6.12267 -6.19734,0 -10.82668,3.73333 -10.82668,8.736 0,6.86934 6.04801,10.75201 16.57601,10.75201 16.57601,0 27.40268,-7.69067 27.40268,-19.33868 0,-9.55734 -7.98934,-15.68001 -20.45867,-15.68001 -6.57067,0 -12.61868,1.568 -18.29335,4.62934 l -0.14933,-0.224 c 5.22667,-3.36 14.26134,-11.12534 24.56534,-21.20534 2.38934,-2.31467 2.76267,-2.61334 3.80801,-3.13601 l -3.136,-4.10667 c -0.97067,0.52267 -1.64267,0.67201 -3.58401,0.82134 -6.72,0.52267 -16.65067,0.97067 -22.84801,0.97067 -3.584,0 -4.928,-0.0747 -7.01867,-0.448 z m 24.49068,47.26402 c -2.688,0.448 -3.584,0.52267 -5.45067,0.52267 -3.21067,0 -6.42134,-0.672 -8.36267,-1.71734 -2.016,-1.19466 -2.98667,-2.61333 -2.98667,-4.55467 0,-2.83733 2.31467,-4.62933 6.048,-4.62933 5.37601,0 9.10934,3.584 10.75201,10.37867 z m 67.57338,-42.70935 h -13.14134 v -6.72001 c 0,-2.83733 0.0747,-4.40533 0.448,-6.272 h -5.52534 c 0.29867,1.94134 0.448,3.584 0.448,6.19734 v 6.79467 h -5.22667 c -3.65866,0 -5.67467,-0.14934 -7.98933,-0.448 v 5.07733 c 2.24,-0.29866 4.40533,-0.448 7.91467,-0.448 h 50.54936 c 3.28533,0 5.376,0.14934 7.54133,0.448 v -5.07733 c -2.16533,0.29866 -4.10667,0.448 -7.54133,0.448 h -22.92268 v -6.86934 h 16.27734 c 3.43467,0 5.45067,0.0747 7.31734,0.37333 v -4.704 c -1.94134,0.29867 -4.33067,0.448 -7.31734,0.448 h -16.27734 c 0,-2.98667 0.14933,-4.704 0.448,-6.42133 h -5.45067 c 0.29867,1.792 0.448,3.65866 0.448,6.34667 z m -3.06134,23.52001 c -3.808,4.928 -9.78133,9.33334 -16.94934,12.46934 1.41867,1.19466 2.16534,1.94133 3.06134,3.43467 6.86933,-3.58401 12.91734,-8.66134 16.42667,-13.96268 -0.224,3.65867 -0.29867,4.55467 -0.29867,6.19734 v 3.73333 c 0,2.46401 -0.0747,3.95734 -0.37333,5.67467 h 5.00267 c -0.29867,-1.71733 -0.37333,-3.136 -0.37333,-5.67467 v -3.808 c 0,-1.26933 -0.0747,-2.688 -0.29867,-6.19733 1.344,2.09066 2.53867,3.36 4.77867,5.45067 3.808,3.584 6.944,5.67466 12.99201,8.66133 0.74666,-1.344 1.41866,-2.31467 2.688,-3.584 -7.09334,-2.688 -13.44001,-7.09334 -17.92001,-12.39467 h 11.27467 c 2.38933,0 4.18134,0.14933 6.048,0.37333 v -4.55467 c -1.568,0.224 -3.584,0.37334 -6.19733,0.37334 h -13.36534 v -7.61601 c 0,-2.61333 0.0747,-4.256 0.29866,-5.67467 h -4.85333 c 0.224,1.41867 0.29866,3.06134 0.29866,5.67467 v 7.61601 h -12.096 c -2.688,0 -4.40534,-0.0747 -6.12267,-0.37334 v 4.55467 c 1.94133,-0.29866 3.584,-0.37333 6.048,-0.37333 z m -2.76266,-7.09334 c -2.09067,-3.36 -3.95734,-5.97333 -6.94401,-9.408 l -3.584,1.86666 c 3.136,3.06134 5.00267,5.67467 7.09334,9.63201 z m 21.50401,-9.632 c -2.16534,4.032 -3.95734,6.42133 -7.31734,9.70667 l 3.06133,2.16533 c 3.43467,-3.36 5.15201,-5.45067 7.91467,-9.632 z m -43.00802,0.0747 c 0.29866,1.94134 0.37333,3.88267 0.37333,7.46667 v 27.70135 c 0,4.256 -0.0747,6.272 -0.448,8.81067 h 5.07733 v -3.50933 h 48.16003 v 3.50933 h 5.152 c -0.37333,-2.464 -0.448,-4.40533 -0.448,-8.81067 v -27.70135 c 0,-3.65866 0.0747,-5.6 0.37333,-7.46667 h -5.376 c 0.224,2.016 0.29867,4.25601 0.29867,7.39201 v 28.97068 h -48.16003 v -28.97068 c 0,-3.36 0.0747,-5.45067 0.29867,-7.39201 z m 84.00002,-3.88266 h -5.45067 c -2.912,0 -4.704,-0.14934 -6.72,-0.448 v 5.152 c 2.016,-0.29867 3.95733,-0.448 6.64533,-0.448 h 4.85334 c -2.24,8.36267 -7.392,17.69601 -13.21601,24.04268 1.41867,1.49333 1.94134,2.24 2.91201,4.18133 5.52533,-6.64534 8.88533,-13.06667 11.34933,-21.95201 -0.224,4.85334 -0.37333,9.10934 -0.37333,11.94667 v 17.24801 c 0,3.50934 -0.14933,6.048 -0.448,8.66134 h 5.45067 c -0.29867,-2.688 -0.448,-4.85334 -0.448,-8.66134 v -18.66667 c -0.224,-6.64534 -0.29867,-10.45334 -0.37333,-11.49868 2.31466,5.00267 3.95733,7.24267 8.43733,11.79734 1.04534,-1.94133 1.568,-2.688 2.76267,-4.032 -5.376,-4.18134 -8.288,-7.69067 -10.67734,-13.06667 h 5.00267 c 2.16534,0 3.73334,0.0747 5.30134,0.37333 v -5.00267 c -1.49334,0.29867 -2.83734,0.37334 -5.22667,0.37334 h -5.22667 v -11.34934 c 4.18133,-1.12 6.19734,-1.86667 10.90134,-3.95734 l -2.912,-3.95733 c -0.82134,0.52266 -1.94134,1.19466 -3.43467,1.792 -6.048,2.53866 -11.79734,3.808 -21.28001,4.85333 1.12,1.64267 1.49333,2.31467 2.16533,4.10667 4.33067,-0.672 6.12267,-0.97067 10.00534,-1.792 z m 40.61869,28.52268 v 11.49867 c 0,4.256 -0.0747,6.19733 -0.448,8.21333 h 5.67467 c -0.29867,-2.016 -0.448,-4.48 -0.448,-8.13867 v -12.69334 l 1.71733,-0.448 c 2.688,-0.672 5.07734,-1.12 7.09334,-1.344 l -0.59734,-5.22667 c -1.71733,0.74667 -3.584,1.26934 -7.01867,2.09067 l -1.19466,0.29867 v -34.19735 c 0,-3.43467 0.14933,-5.52534 0.448,-7.76534 h -5.67467 c 0.29866,1.86667 0.448,3.88267 0.448,7.84001 v 35.24268 l -20.53335,4.928 c -2.98666,0.74667 -5.376,1.12 -7.09333,1.19467 l 0.672,5.30134 c 1.792,-0.59734 4.256,-1.34401 7.01867,-2.01601 z m -21.13068,-38.82669 c 5.824,3.73334 9.25867,6.79467 13.96267,12.24534 l 2.98667,-3.88267 c -4.10667,-4.55467 -7.76534,-7.76534 -13.88801,-11.94667 z m -2.38933,18.51734 c 6.42133,4.256 9.184,6.72001 13.81334,11.94667 l 2.98666,-3.808 c -4.40533,-4.704 -7.168,-7.01867 -13.73867,-11.57334 z"
       id="text71"
       transform="translate(-90.480517,-5.4530052)"
       aria-label="辻堂がじゅまる歯科" />
    <text
       xml:space="preserve"
       style="font-size:29.3333px;line-height:0;writing-mode:lr-tb;direction:ltr;white-space:pre;inline-size:480.723;fill:#163455;stroke:url(#linearGradient118);stroke-opacity:1;stroke-width:3;stroke-dasharray:none;opacity:1;fill-opacity:1"
       x="239.70703"
       y="1016.7273"
       id="text72" />
    <text
       xml:space="preserve"
       style="font-size:29.3333px;line-height:1;writing-mode:lr-tb;direction:ltr;white-space:pre;inline-size:684.222;fill:#163455;stroke:url(#linearGradient117);stroke-opacity:1;stroke-width:3;stroke-dasharray:none;opacity:1;fill-opacity:1"
       x="241.88918"
       y="1001.4545"
       id="text73" />
    <text
       xml:space="preserve"
       id="text74"
       style="fill:#163455;text-orientation:auto;writing-mode:lr-tb;direction:ltr;font-size:29.33333333px;line-height:0;white-space:pre;shape-inside:url(#rect74);stroke:url(#linearGradient116);stroke-opacity:1;stroke-width:3;stroke-dasharray:none;opacity:1;fill-opacity:1" />
    <path
       style="font-size:21.3333px;line-height:1;font-family:'Avenir Next';-inkscape-font-specification:'Avenir Next, Normal';stroke:url(#linearGradient115);stroke-opacity:1;fill:#163455;stroke-width:3;stroke-dasharray:none;opacity:1;fill-opacity:1"
       d="m 256.06436,1005.8182 h -1.536 v -13.73867 h -5.05599 v -1.36533 h 11.64798 v 1.36533 h -5.05599 z m 19.45596,-12.672 q -0.49067,-0.68267 -1.25867,-1.088 -0.768,-0.42667 -1.85599,-0.42667 -0.55467,0 -1.13067,0.17067 -0.576,0.17066 -1.04533,0.53333 -0.46933,0.34133 -0.768,0.87467 -0.27733,0.53333 -0.27733,1.25866 0,0.72533 0.27733,1.19467 0.27733,0.46933 0.72533,0.81066 0.46934,0.32 1.04533,0.53333 0.59734,0.21334 1.23734,0.42667 0.78933,0.256 1.57866,0.55467 0.81067,0.29866 1.45066,0.78933 0.64,0.46933 1.04534,1.216 0.40533,0.72531 0.40533,1.85601 0,1.1306 -0.448,1.9626 -0.42667,0.8107 -1.13066,1.344 -0.68267,0.5334 -1.57867,0.7894 -0.87466,0.256 -1.77066,0.256 -0.68267,0 -1.36533,-0.1494 -0.68267,-0.128 -1.30134,-0.4053 -0.61866,-0.2773 -1.15199,-0.704 -0.53334,-0.4267 -0.93867,-0.9813 l 1.32267,-0.9814 q 0.49066,0.8107 1.36533,1.3654 0.896,0.5333 2.09066,0.5333 0.576,0 1.17333,-0.1707 0.59733,-0.192 1.06667,-0.5546 0.49066,-0.384 0.78933,-0.9174 0.32,-0.5546 0.32,-1.28 0,-0.7893 -0.32,-1.3013 -0.29867,-0.5333 -0.81067,-0.87465 -0.512,-0.36266 -1.17333,-0.59733 -0.66133,-0.23467 -1.38666,-0.46933 -0.74667,-0.23467 -1.472,-0.53334 -0.72533,-0.29866 -1.30133,-0.76799 -0.576,-0.49067 -0.93867,-1.19467 -0.34133,-0.704 -0.34133,-1.728 0,-1.08799 0.42667,-1.87733 0.448,-0.78933 1.15199,-1.30133 0.704,-0.512 1.55734,-0.74666 0.85333,-0.23467 1.68533,-0.23467 1.53599,0 2.62399,0.55467 1.088,0.53333 1.64267,1.27999 z m 15.61596,13.056 q -1.70667,0 -2.79467,-0.576 -1.088,-0.5974 -1.72799,-1.4934 -0.64,-0.896 -0.896,-1.9413 -0.23467,-1.0666 -0.23467,-2.0053 v -9.472 h 1.536 v 9.3013 q 0,0.9174 0.21333,1.792 0.21333,0.8533 0.68267,1.536 0.49066,0.6613 1.28,1.088 0.78933,0.4053 1.94133,0.4053 1.15199,0 1.94133,-0.4053 0.78933,-0.4267 1.25866,-1.088 0.49067,-0.6827 0.704,-1.536 0.21333,-0.8746 0.21333,-1.792 v -9.3013 h 1.536 v 9.472 q 0,0.9387 -0.256,2.0053 -0.23467,1.0453 -0.87467,1.9413 -0.63999,0.896 -1.74933,1.4934 -1.08799,0.576 -2.77332,0.576 z m 14.61331,-3.456 q 0.17066,0.896 0.78933,1.5146 0.64,0.5974 1.664,0.5974 0.78933,0 1.30133,-0.2774 0.512,-0.2986 0.81066,-0.7893 0.32,-0.4907 0.42667,-1.1093 0.128,-0.64 0.128,-1.3227 v -10.6453 h 1.536 v 10.752 q 0,0.7466 -0.17067,1.5786 -0.14933,0.832 -0.59733,1.536 -0.448,0.704 -1.23733,1.1734 -0.78934,0.448 -2.02667,0.448 -1.64266,0 -2.70933,-0.8534 -1.06666,-0.8746 -1.344,-2.2186 z m 17.40798,3.072 h -1.536 v -15.104 h 1.536 z m 9.34399,-15.104 h 5.01333 q 1.40799,0 2.81599,0.46933 1.42933,0.46934 2.56,1.42933 1.152,0.93867 1.856,2.368 0.70399,1.408 0.70399,3.28533 0,1.89871 -0.70399,3.30661 -0.704,1.408 -1.856,2.368 -1.13067,0.9387 -2.56,1.408 -1.408,0.4694 -2.81599,0.4694 h -5.01333 z m 1.536,13.7386 h 3.05066 q 1.70666,0 2.96533,-0.5333 1.28,-0.5333 2.112,-1.3867 0.83199,-0.8746 1.23733,-1.9839 0.42666,-1.10938 0.42666,-2.28271 0,-1.17333 -0.42666,-2.28266 -0.40534,-1.10934 -1.23733,-1.96267 -0.832,-0.87466 -2.112,-1.408 -1.25867,-0.53333 -2.96533,-0.53333 h -3.05066 z m 34.87994,-6.18661 q 0,1.728 -0.59733,3.17861 -0.59734,1.4507 -1.664,2.5174 -1.04533,1.0453 -2.496,1.6426 -1.42933,0.5974 -3.11466,0.5974 -1.68533,0 -3.13599,-0.5974 -1.42933,-0.5973 -2.496,-1.6426 -1.04533,-1.0667 -1.64266,-2.5174 -0.59734,-1.45061 -0.59734,-3.17861 0,-1.728 0.59734,-3.17866 0.59733,-1.45067 1.64266,-2.496 1.06667,-1.06666 2.496,-1.664 1.45066,-0.59733 3.13599,-0.59733 1.68533,0 3.11466,0.59733 1.45067,0.59734 2.496,1.664 1.06666,1.04533 1.664,2.496 0.59733,1.45066 0.59733,3.17866 z m -1.62133,0 q 0,-1.32267 -0.42667,-2.51733 -0.42666,-1.19467 -1.23733,-2.09066 -0.81066,-0.91734 -1.984,-1.45067 -1.15199,-0.53333 -2.60266,-0.53333 -1.45066,0 -2.62399,0.53333 -1.152,0.53333 -1.96267,1.45067 -0.81066,0.89599 -1.23733,2.09066 -0.42667,1.19466 -0.42667,2.51733 0,1.32266 0.42667,2.51731 0.42667,1.1947 1.23733,2.0907 0.81067,0.896 1.96267,1.4293 1.17333,0.5333 2.62399,0.5333 1.45067,0 2.60266,-0.5333 1.17334,-0.5333 1.984,-1.4293 0.81067,-0.896 1.23733,-2.0907 0.42667,-1.19465 0.42667,-2.51731 z m 32.27729,-4.84266 q -0.78933,-0.832 -1.87733,-1.28 -1.08799,-0.46933 -2.49599,-0.46933 -1.45067,0 -2.624,0.53333 -1.152,0.53333 -1.96266,1.45067 -0.81067,0.89599 -1.25867,2.09066 -0.42666,1.19466 -0.42666,2.51733 0,1.32266 0.42666,2.51731 0.448,1.1947 1.25867,2.0907 0.81066,0.896 1.96266,1.4293 1.17333,0.5333 2.624,0.5333 1.28,0 2.34666,-0.2773 1.06667,-0.2773 1.728,-0.704 v -4.58665 h -3.52 v -1.34399 h 5.056 v 6.80534 q -1.23734,0.7466 -2.66667,1.1093 -1.42933,0.3627 -2.96533,0.3627 -1.70666,0 -3.15732,-0.5974 -1.45067,-0.5973 -2.496,-1.6426 -1.04533,-1.0667 -1.64266,-2.5174 -0.576,-1.45061 -0.576,-3.17861 0,-1.728 0.59733,-3.17866 0.59733,-1.45067 1.64266,-2.496 1.06667,-1.06666 2.496,-1.664 1.45066,-0.59733 3.13599,-0.59733 1.81333,0 3.15733,0.53333 1.344,0.53334 2.304,1.49333 z m 10.00532,12.39467 h -1.68533 l 6.52799,-15.104 h 1.49333 l 6.48532,15.104 h -1.70666 l -1.664,-3.968 h -7.80799 z m 2.21866,-5.376 h 6.65599 l -3.32799,-8.02134 z m 17.47202,2.304 q 0.17066,0.896 0.78933,1.5146 0.64,0.5974 1.664,0.5974 0.78933,0 1.30133,-0.2774 0.512,-0.2986 0.81066,-0.7893 0.32,-0.4907 0.42667,-1.1093 0.128,-0.64 0.128,-1.3227 v -10.6453 h 1.536 v 10.752 q 0,0.7466 -0.17067,1.5786 -0.14933,0.832 -0.59733,1.536 -0.448,0.704 -1.23733,1.1734 -0.78934,0.448 -2.02667,0.448 -1.64266,0 -2.70933,-0.8534 -1.06666,-0.8746 -1.34399,-2.2186 z m 21.43997,3.456 q -1.70666,0 -2.79466,-0.576 -1.088,-0.5974 -1.728,-1.4934 -0.64,-0.896 -0.896,-1.9413 -0.23466,-1.0666 -0.23466,-2.0053 v -9.472 h 1.53599 v 9.3013 q 0,0.9174 0.21334,1.792 0.21333,0.8533 0.68266,1.536 0.49067,0.6613 1.28,1.088 0.78933,0.4053 1.94133,0.4053 1.152,0 1.94133,-0.4053 0.78933,-0.4267 1.25866,-1.088 0.49067,-0.6827 0.704,-1.536 0.21334,-0.8746 0.21334,-1.792 v -9.3013 h 1.53599 v 9.472 q 0,0.9387 -0.256,2.0053 -0.23466,1.0453 -0.87466,1.9413 -0.64,0.896 -1.74933,1.4934 -1.088,0.576 -2.77333,0.576 z m 22.37861,-2.9867 h 0.0213 l 5.05599,-12.5013 h 2.34666 v 15.104 h -1.536 v -13.12 h -0.0427 l -5.46133,13.12 h -0.81066 l -5.46133,-13.12 h -0.0427 v 13.12 h -1.536 v -15.104 h 2.34666 z m 16.27731,2.6027 h -1.68533 l 6.52799,-15.104 h 1.49333 l 6.48533,15.104 H 500.48 l -1.66399,-3.968 h -7.80799 z m 2.21867,-5.376 h 6.65599 l -3.328,-8.02134 z m 19.30664,5.376 h -1.536 v -15.104 h 4.43733 q 1.10933,0 2.048,0.21333 0.96,0.21334 1.64266,0.704 0.704,0.46933 1.088,1.23733 0.384,0.768 0.384,1.87733 0,0.832 -0.29867,1.51467 -0.29866,0.68266 -0.81066,1.19466 -0.512,0.49067 -1.216,0.78933 -0.704,0.29867 -1.536,0.384 l 4.416,7.18935 h -1.87733 l -4.18133,-7.06135 h -2.56 z m 0,-8.38401 h 2.66666 q 1.856,0 2.85867,-0.66133 1.00266,-0.68267 1.00266,-2.02667 0,-0.74666 -0.27733,-1.25866 -0.27733,-0.512 -0.768,-0.832 -0.49067,-0.32 -1.19466,-0.46933 -0.704,-0.14934 -1.55734,-0.14934 h -2.73066 z m 22.144,8.76801 q -1.70667,0 -2.79467,-0.576 -1.08799,-0.5974 -1.72799,-1.4934 -0.64,-0.896 -0.896,-1.9413 -0.23467,-1.0666 -0.23467,-2.0053 v -9.472 h 1.536 v 9.3013 q 0,0.9174 0.21333,1.792 0.21333,0.8533 0.68267,1.536 0.49066,0.6613 1.28,1.088 0.78933,0.4053 1.94133,0.4053 1.15199,0 1.94133,-0.4053 0.78933,-0.4267 1.25866,-1.088 0.49067,-0.6827 0.704,-1.536 0.21333,-0.8746 0.21333,-1.792 v -9.3013 h 1.536 v 9.472 q 0,0.9387 -0.256,2.0053 -0.23467,1.0453 -0.87466,1.9413 -0.64,0.896 -1.74934,1.4934 -1.08799,0.576 -2.77332,0.576 z m 25.57861,-15.488 h 5.01333 q 1.40799,0 2.81599,0.46933 1.42933,0.46934 2.56,1.42933 1.152,0.93867 1.85599,2.368 0.704,1.408 0.704,3.28533 0,1.89871 -0.704,3.30661 -0.70399,1.408 -1.85599,2.368 -1.13067,0.9387 -2.56,1.408 -1.408,0.4694 -2.81599,0.4694 h -5.01333 z m 1.536,13.7386 h 3.05066 q 1.70666,0 2.96533,-0.5333 1.28,-0.5333 2.112,-1.3867 0.83199,-0.8746 1.23733,-1.9839 0.42666,-1.10938 0.42666,-2.28271 0,-1.17333 -0.42666,-2.28266 -0.40534,-1.10934 -1.23733,-1.96267 -0.832,-0.87466 -2.112,-1.408 -1.25867,-0.53333 -2.96533,-0.53333 h -3.05066 z m 21.48263,0 h 8.08532 v 1.3654 h -9.62131 v -15.104 h 9.36531 v 1.36533 h -7.82932 v 5.20533 h 7.31733 v 1.34399 h -7.31733 z m 27.13597,-0.8746 h 0.0427 v -12.864 h 1.53599 v 15.104 h -1.91999 l -8.78932,-12.992 h -0.0427 v 12.992 h -1.536 v -15.104 h 1.92 z m 15.25331,2.24 h -1.536 v -13.73867 h -5.05599 v -1.36533 h 11.64798 v 1.36533 h -5.05599 z m 11.64796,0 h -1.68533 l 6.52799,-15.104 h 1.49333 l 6.48532,15.104 h -1.70666 l -1.664,-3.968 h -7.80798 z m 2.21866,-5.376 h 6.65599 l -3.32799,-8.02134 z m 19.30666,4.0106 h 7.03999 v 1.3654 h -8.57598 v -15.104 h 1.53599 z m 37.54663,-1.0666 q -0.38399,0.576 -0.93866,1.088 -0.53333,0.512 -1.25866,0.896 -0.704,0.384 -1.57867,0.5973 -0.85333,0.2347 -1.87733,0.2347 -1.70666,0 -3.15733,-0.5974 -1.45066,-0.5973 -2.49599,-1.6426 -1.04534,-1.0667 -1.64267,-2.5174 -0.576,-1.45061 -0.576,-3.17861 0,-1.728 0.59734,-3.17866 0.59733,-1.45067 1.64266,-2.496 1.06666,-1.06666 2.496,-1.664 1.45066,-0.59733 3.13599,-0.59733 0.832,0 1.62133,0.17067 0.81067,0.17066 1.51467,0.49066 0.70399,0.29867 1.27999,0.74667 0.576,0.42666 0.96,0.98133 l -1.28,0.93867 q -0.23466,-0.36267 -0.63999,-0.72534 -0.384,-0.36266 -0.91734,-0.64 -0.53333,-0.27733 -1.17333,-0.44799 -0.61866,-0.17067 -1.344,-0.17067 -1.47199,0 -2.64533,0.53333 -1.15199,0.53333 -1.96266,1.45067 -0.81066,0.89599 -1.23733,2.09066 -0.42667,1.19466 -0.42667,2.51733 0,1.32266 0.42667,2.51731 0.448,1.1947 1.25866,2.112 0.81067,0.896 1.96267,1.4293 1.17333,0.5334 2.62399,0.5334 1.30134,0 2.47467,-0.5334 1.17333,-0.5333 1.96266,-1.7066 z m 9.51462,1.0666 h 7.03999 v 1.3654 h -8.57598 v -15.104 h 1.53599 z m 15.70133,1.3654 h -1.536 v -15.104 h 1.536 z m 20.05329,-2.24 h 0.0427 v -12.864 h 1.536 v 15.104 h -1.92 l -8.78932,-12.992 h -0.0427 v 12.992 h -1.536 v -15.104 h 1.92 z m 12.45864,2.24 h -1.536 v -15.104 h 1.536 z m 22.05865,-2.432 q -0.38399,0.576 -0.93866,1.088 -0.53333,0.512 -1.25867,0.896 -0.70399,0.384 -1.57866,0.5973 -0.85333,0.2347 -1.87733,0.2347 -1.70666,0 -3.15733,-0.5974 -1.45066,-0.5973 -2.49599,-1.6426 -1.04534,-1.0667 -1.64267,-2.5174 -0.576,-1.45061 -0.576,-3.17861 0,-1.728 0.59733,-3.17866 0.59734,-1.45067 1.64267,-2.496 1.06666,-1.06666 2.496,-1.664 1.45066,-0.59733 3.13599,-0.59733 0.832,0 1.62133,0.17067 0.81067,0.17066 1.51467,0.49066 0.70399,0.29867 1.27999,0.74667 0.576,0.42666 0.96,0.98133 l -1.28,0.93867 q -0.23466,-0.36267 -0.64,-0.72534 -0.38399,-0.36266 -0.91733,-0.64 -0.53333,-0.27733 -1.17333,-0.44799 -0.61866,-0.17067 -1.344,-0.17067 -1.47199,0 -2.64533,0.53333 -1.15199,0.53333 -1.96266,1.45067 -0.81066,0.89599 -1.23733,2.09066 -0.42667,1.19466 -0.42667,2.51733 0,1.32266 0.42667,2.51731 0.448,1.1947 1.25866,2.112 0.81067,0.896 1.96267,1.4293 1.17333,0.5334 2.62399,0.5334 1.30133,0 2.47467,-0.5334 1.17333,-0.5333 1.96266,-1.7066 z"
       id="text75"
       aria-label="T S U J I D O   G A J U M A R U   D E N T A L   C L I N I C" />
    <text
       xml:space="preserve"
       id="text76"
       style="fill:#163455;text-orientation:auto;writing-mode:lr-tb;direction:ltr;font-size:74.66670227px;line-height:0.2;-inkscape-font-specification:'Hiragino Kaku Gothic ProN, Normal';font-family:'Hiragino Kaku Gothic ProN';font-weight:normal;font-style:normal;font-stretch:normal;font-variant:normal;font-variant-ligatures:normal;font-variant-caps:normal;font-variant-numeric:normal;font-variant-east-asian:normal;white-space:pre;shape-inside:url(#rect76);stroke:url(#linearGradient114);stroke-opacity:1;stroke-width:3;stroke-dasharray:none;opacity:1;fill-opacity:1" />
  </g>
</svg>
